name Walk10.mot
datacolumns 19
datarows 15
range 1.86000000 1.93000000
endheader

                time	   L_ground_force_vx	   L_ground_force_vy	   L_ground_force_vz	   L_ground_force_px	   L_ground_force_py	   L_ground_force_pz	   R_ground_force_vx	   R_ground_force_vy	   R_ground_force_vz	   R_ground_force_px	   R_ground_force_py	   R_ground_force_pz	   L_ground_torque_x	   L_ground_torque_y	   L_ground_torque_z	   R_ground_torque_x	   R_ground_torque_y	   R_ground_torque_z	
          1.86000000	        -48.17323096	        524.91245083	          5.97234003	          0.55529500	          0.00000000	          0.31062387	         -0.00000000	          0.00000000	         -0.00000000	         -0.00000000	          0.00000000	          0.00000000	          0.00000000	         -1.39936145	          0.00000000	          0.00000000	         -0.00000000	          0.00000000	
          1.86500000	        -46.46373948	        518.95078757	          7.19015774	          0.55748929	          0.00000000	          0.31028620	         -0.00000000	          0.00000000	         -0.00000000	         -0.00000000	          0.00000000	          0.00000000	          0.00000000	         -1.34917065	          0.00000000	          0.00000000	         -0.00000000	          0.00000000	
          1.87000000	        -44.47966555	        514.01097825	          8.77879095	          0.55951730	          0.00000000	          0.31000690	         -0.00000000	         -0.00000000	         -0.00000000	          0.00000000	          0.00000000	         -0.00000000	          0.00000000	         -1.29527897	          0.00000000	          0.00000000	         -0.00000000	          0.00000000	
          1.87500000	        -42.18757410	        510.04413208	         10.50556968	          0.56144654	          0.00000000	          0.30959713	          0.00000000	         -0.00000000	          0.00000000	          0.00000000	          0.00000000	         -0.00000000	          0.00000000	         -1.24453192	          0.00000000	          0.00000000	          0.00000000	          0.00000000	
          1.88000000	        -39.60174250	        507.05420766	         12.39359028	          0.56305662	          0.00000000	          0.30924610	          0.00000000	         -0.00000000	          0.00000000	          0.00000000	          0.00000000	         -0.00000000	          0.00000000	         -1.13587035	          0.00000000	          0.00000000	          0.00000000	          0.00000000	
          1.88500000	        -37.11719373	        505.35788303	         14.54845940	          0.56470038	          0.00000000	          0.30882251	         -0.00000000	          0.00000000	         -0.00000000	         -0.00000000	          0.00000000	          0.00000000	          0.00000000	         -1.00144108	          0.00000000	          0.00000000	          0.00000000	          0.00000000	
          1.89000000	        -35.08044003	        505.03916062	         17.03906273	          0.56620114	          0.00000000	          0.30829024	         -0.00000000	          0.00000000	         -0.00000000	         -0.00000000	          0.00000000	          0.00000000	          0.00000000	         -0.86702230	          0.00000000	          0.00000000	         -0.00000000	          0.00000000	
          1.89500000	        -33.15482134	        505.28500973	         19.67263380	          0.56761760	          0.00000000	          0.30785106	         -0.00000000	         -0.00000000	         -0.00000000	         -0.00000000	          0.00000000	          0.00000000	          0.00000000	         -0.78423392	          0.00000000	          0.00000000	         -0.00000000	          0.00000000	
          1.90000000	        -30.92976078	        506.45806216	         21.86639130	          0.56930720	          0.00000000	          0.30756595	          0.00000000	         -0.00000000	          0.00000000	          0.00000000	          0.00000000	         -0.00000000	          0.00000000	         -0.78664656	          0.00000000	          0.00000000	          0.00000000	          0.00000000	
          1.90500000	        -28.38220128	        509.26299459	         23.11063139	          0.57083196	          0.00000000	          0.30735362	          0.00000000	         -0.00000000	          0.00000000	          0.00000000	          0.00000000	         -0.00000000	          0.00000000	         -0.84202115	          0.00000000	          0.00000000	          0.00000000	          0.00000000	
          1.91000000	        -25.68103935	        514.25589190	         23.40973909	          0.57217825	          0.00000000	          0.30712187	          0.00000000	          0.00000000	          0.00000000	         -0.00000000	          0.00000000	         -0.00000000	          0.00000000	         -0.91239196	          0.00000000	          0.00000000	          0.00000000	          0.00000000	
          1.91500000	        -23.07574192	        521.77954190	         23.00249577	          0.57303437	          0.00000000	          0.30697134	         -0.00000000	          0.00000000	         -0.00000000	         -0.00000000	          0.00000000	          0.00000000	          0.00000000	         -1.02073356	          0.00000000	          0.00000000	         -0.00000000	          0.00000000	
          1.92000000	        -20.48667339	        531.72832208	         22.00955366	          0.57336681	          0.00000000	          0.30694481	         -0.00000000	          0.00000000	         -0.00000000	         -0.00000000	          0.00000000	          0.00000000	          0.00000000	         -1.23599796	          0.00000000	          0.00000000	         -0.00000000	          0.00000000	
          1.92500000	        -17.64911573	        543.71349339	         20.39525624	          0.57380461	          0.00000000	          0.30688868	         -0.00000000	         -0.00000000	         -0.00000000	          0.00000000	          0.00000000	         -0.00000000	          0.00000000	         -1.53241531	          0.00000000	          0.00000000	         -0.00000000	          0.00000000	
          1.93000000	        -14.49753740	        557.13924464	         18.31735147	          0.57438860	          0.00000000	          0.30698060	          0.00000000	         -0.00000000	          0.00000000	          0.00000000	          0.00000000	         -0.00000000	          0.00000000	         -1.86612049	          0.00000000	          0.00000000	          0.00000000	          0.00000000	
